<svg width="40" height="40" viewBox="0 0 40 40" fill="none" xmlns="http://www.w3.org/2000/svg">
<circle cx="20" cy="20" r="20" fill="black"/>
<path fill-rule="evenodd" clip-rule="evenodd" d="M23.0778 20.9407L26.5345 22.5119C27.427 22.9176 28 23.8075 28 24.7878V25.5C28 26.8807 26.8807 28 25.5 28H14.5C13.1193 28 12 26.8807 12 25.5V24.7878C12 23.8075 12.573 22.9176 13.4655 22.5119L16.9222 20.9407C15.7521 20.0255 15 18.6006 15 17C15 14.2386 17.2386 12 20 12C22.7614 12 25 14.2386 25 17C25 18.6006 24.2479 20.0255 23.0778 20.9407ZM17.9613 21.5668L13.8793 23.4223C13.3438 23.6657 13 24.1996 13 24.7878V25.5C13 26.3284 13.6716 27 14.5 27H25.5C26.3284 27 27 26.3284 27 25.5V24.7878C27 24.1996 26.6562 23.6657 26.1207 23.4223L22.0387 21.5668C21.4161 21.8452 20.7261 22 20 22C19.2739 22 18.5839 21.8452 17.9613 21.5668ZM24 17C24 19.2091 22.2091 21 20 21C17.7909 21 16 19.2091 16 17C16 14.7909 17.7909 13 20 13C22.2091 13 24 14.7909 24 17Z" fill="#E4A503"/>
</svg>
