<svg width="24" height="24" viewBox="0 0 24 24" fill="none" xmlns="http://www.w3.org/2000/svg">
<path fill-rule="evenodd" clip-rule="evenodd" d="M20.5 7H18V4.5C18 4.22386 17.7761 4 17.5 4C17.2239 4 17 4.22386 17 4.5V7H14.5C14.2239 7 14 7.22386 14 7.5C14 7.77614 14.2239 8 14.5 8H17V10.5C17 10.7761 17.2239 11 17.5 11C17.7761 11 18 10.7761 18 10.5V8H20.5C20.7761 8 21 7.77614 21 7.5C21 7.22386 20.7761 7 20.5 7ZM12 7.5C12 7.22386 11.7761 7 11.5 7H3.5C3.22386 7 3 7.22386 3 7.5C3 7.77614 3.22386 8 3.5 8H11.5C11.7761 8 12 7.77614 12 7.5ZM14.5 12C14.7761 12 15 12.2239 15 12.5C15 12.7761 14.7761 13 14.5 13H3.5C3.22386 13 3 12.7761 3 12.5C3 12.2239 3.22386 12 3.5 12H14.5ZM21 17.5C21 17.2239 20.7761 17 20.5 17H3.5C3.22386 17 3 17.2239 3 17.5C3 17.7761 3.22386 18 3.5 18H20.5C20.7761 18 21 17.7761 21 17.5Z" fill="white"/>
</svg>
