<svg width="36" height="36" viewBox="0 0 36 36" fill="none" xmlns="http://www.w3.org/2000/svg">
<rect width="36" height="36" rx="10" fill="#FCF6E6"/>
<path fill-rule="evenodd" clip-rule="evenodd" d="M18 29.5714C19.6542 29.5714 21.1006 28.5212 21.6376 27H23.686C24.1358 27 24.5805 26.9056 24.9915 26.7229C26.6137 26.0019 27.3443 24.1024 26.6233 22.4802L25.7143 20.435V16.7142C25.7143 13.3554 23.5676 10.4979 20.5714 9.43891V8.99996C20.5714 7.5798 19.4202 6.42853 18 6.42853C16.5798 6.42853 15.4286 7.5798 15.4286 8.99996V9.43891C12.4324 10.4979 10.2857 13.3554 10.2857 16.7142V20.435L9.3767 22.4802C9.19405 22.8912 9.09967 23.3359 9.09967 23.7857C9.09967 25.5609 10.5388 27 12.314 27H14.3624C14.8977 28.5173 16.3422 29.5714 18 29.5714ZM15.772 27H20.228C19.7789 27.7772 18.9396 28.2857 18 28.2857C17.0587 28.2857 16.2203 27.7756 15.772 27ZM19.2857 9.10662V8.99996C19.2857 8.28988 18.7101 7.71424 18 7.71424C17.2899 7.71424 16.7143 8.28988 16.7143 8.99996V9.10662C17.1324 9.03647 17.5619 8.99996 18 8.99996C18.4381 8.99996 18.8676 9.03647 19.2857 9.10662ZM11.5714 16.7142C11.5714 13.1638 14.4496 10.2857 18 10.2857C21.5504 10.2857 24.4286 13.1638 24.4286 16.7142V20.5714L24.484 20.8325L25.4484 23.0024C25.881 23.9757 25.4426 25.1154 24.4693 25.548C24.2227 25.6576 23.9559 25.7142 23.686 25.7142H12.314C11.2488 25.7142 10.3854 24.8508 10.3854 23.7857C10.3854 23.5158 10.442 23.249 10.5516 23.0024L11.516 20.8325L11.5714 20.5714V16.7142Z" fill="#E4A503"/>
</svg>
