<svg width="24" height="24" viewBox="0 0 24 24" fill="none" xmlns="http://www.w3.org/2000/svg">
<path fill-rule="evenodd" clip-rule="evenodd" d="M18.6709 5.60561L17.187 5.90926C16.4472 5.27863 15.5983 4.78659 14.6805 4.46025L14.2023 3.02566C13.9981 2.41315 13.4249 2 12.7792 2H11.2208C10.5751 2 10.0019 2.41315 9.79773 3.02566L9.31954 4.46025C8.40167 4.78659 7.55278 5.27863 6.81297 5.90926L5.32912 5.60561C4.69659 5.47617 4.05219 5.76601 3.72937 6.32516L2.95013 7.67484C2.6273 8.23399 2.69849 8.93697 3.12686 9.42005L4.13077 10.5522C4.04402 11.0265 4 11.5105 4 12C4 12.4895 4.04402 12.9735 4.13077 13.4478L3.12686 14.58C2.69849 15.063 2.6273 15.766 2.95013 16.3252L3.72937 17.6748C4.05219 18.234 4.69659 18.5238 5.32912 18.3944L6.81297 18.0907C7.55278 18.7214 8.40167 19.2134 9.31954 19.5397L9.79773 20.9743C10.0019 21.5869 10.5751 22 11.2208 22H12.7792C13.4249 22 13.9981 21.5869 14.2023 20.9743L14.6805 19.5397C15.5983 19.2134 16.4472 18.7214 17.187 18.0907L18.6709 18.3944C19.3034 18.5238 19.9478 18.234 20.2706 17.6748L21.0499 16.3252C21.3727 15.766 21.3015 15.063 20.8731 14.58L19.8692 13.4478C19.956 12.9735 20 12.4895 20 12C20 11.5105 19.956 11.0265 19.8692 10.5522L20.8731 9.42005C21.3015 8.93697 21.3727 8.23399 21.0499 7.67484L20.2706 6.32516C19.9478 5.76601 19.3034 5.47617 18.6709 5.60561ZM13.8104 5.01249C13.8609 5.16388 13.9806 5.28209 14.1326 5.33066C15.0885 5.63604 15.9658 6.14494 16.7072 6.81895C16.8252 6.92629 16.9874 6.97082 17.1438 6.93884L18.8714 6.58531C19.0822 6.54216 19.297 6.63878 19.4046 6.82516L20.1838 8.17484C20.2915 8.36122 20.2677 8.59555 20.1249 8.75658L18.9562 10.0746C18.8505 10.1938 18.8079 10.3563 18.8416 10.512C18.9466 10.997 19 11.4949 19 12C19 12.5051 18.9466 13.003 18.8416 13.488C18.8079 13.6437 18.8505 13.8062 18.9562 13.9254L20.1249 15.2434C20.2677 15.4044 20.2915 15.6388 20.1838 15.8252L19.4046 17.1748C19.297 17.3612 19.0822 17.4578 18.8714 17.4147L17.1438 17.0612C16.9874 17.0292 16.8252 17.0737 16.7072 17.181C15.9658 17.8551 15.0885 18.364 14.1326 18.6693C13.9806 18.7179 13.8609 18.8361 13.8104 18.9875L13.2536 20.6581C13.1855 20.8623 12.9945 21 12.7792 21H11.2208C11.0055 21 10.8145 20.8623 10.7464 20.6581L10.1896 18.9875C10.1391 18.8361 10.0194 18.7179 9.86737 18.6693C8.91148 18.364 8.03423 17.8551 7.29282 17.181C7.17476 17.0737 7.01256 17.0292 6.85624 17.0612L5.12864 17.4147C4.9178 17.4578 4.703 17.3612 4.59539 17.1748L3.81615 15.8252C3.70854 15.6388 3.73227 15.4044 3.87506 15.2434L5.04378 13.9254C5.14951 13.8062 5.19207 13.6437 5.15837 13.488C5.05342 13.003 5 12.5051 5 12C5 11.4949 5.05342 10.997 5.15837 10.512C5.19207 10.3563 5.14951 10.1938 5.04378 10.0746L3.87506 8.75658C3.73227 8.59555 3.70854 8.36122 3.81615 8.17484L4.59539 6.82516C4.703 6.63878 4.9178 6.54216 5.12864 6.58531L6.85624 6.93884C7.01256 6.97082 7.17476 6.92629 7.29282 6.81895C8.03423 6.14494 8.91148 5.63604 9.86737 5.33066C10.0194 5.28209 10.1391 5.16388 10.1896 5.01249L10.7464 3.34189C10.8145 3.13771 11.0055 3 11.2208 3H12.7792C12.9945 3 13.1855 3.13771 13.2536 3.34189L13.8104 5.01249ZM12 16C9.79086 16 8 14.2091 8 12C8 9.79086 9.79086 8 12 8C14.2091 8 16 9.79086 16 12C16 14.2091 14.2091 16 12 16ZM15 12C15 13.6569 13.6569 15 12 15C10.3431 15 9 13.6569 9 12C9 10.3431 10.3431 9 12 9C13.6569 9 15 10.3431 15 12Z" fill="black"/>
</svg>
