<svg width="24" height="24" viewBox="0 0 24 24" fill="none" xmlns="http://www.w3.org/2000/svg">
<path fill-rule="evenodd" clip-rule="evenodd" d="M18.6708 5.60561L17.1869 5.90926C16.4471 5.27863 15.5982 4.78659 14.6803 4.46025L14.2021 3.02566C13.998 2.41315 13.4248 2 12.7791 2H11.2206C10.575 2 10.0018 2.41315 9.79761 3.02566L9.31941 4.46025C8.40155 4.78659 7.55266 5.27863 6.81285 5.90926L5.329 5.60561C4.69647 5.47617 4.05207 5.76601 3.72924 6.32516L2.95 7.67484C2.62718 8.23399 2.69837 8.93697 3.12674 9.42005L4.13065 10.5522C4.04389 11.0265 3.99988 11.5105 3.99988 12C3.99988 12.4895 4.04389 12.9735 4.13065 13.4478L3.12674 14.58C2.69837 15.063 2.62718 15.766 2.95 16.3252L3.72924 17.6748C4.05207 18.234 4.69647 18.5238 5.329 18.3944L6.81285 18.0907C7.55266 18.7214 8.40155 19.2134 9.31941 19.5397L9.79761 20.9743C10.0018 21.5869 10.575 22 11.2206 22H12.7791C13.4248 22 13.998 21.5869 14.2021 20.9743L14.6803 19.5397C15.5982 19.2134 16.4471 18.7214 17.1869 18.0907L18.6708 18.3944C19.3033 18.5238 19.9477 18.234 20.2705 17.6748L21.0498 16.3252C21.3726 15.766 21.3014 15.063 20.873 14.58L19.8691 13.4478C19.9559 12.9735 19.9999 12.4895 19.9999 12C19.9999 11.5105 19.9559 11.0265 19.8691 10.5522L20.873 9.42005C21.3014 8.93697 21.3726 8.23399 21.0498 7.67484L20.2705 6.32516C19.9477 5.76601 19.3033 5.47617 18.6708 5.60561ZM13.8103 5.01249C13.8608 5.16388 13.9805 5.28209 14.1325 5.33066C15.0884 5.63604 15.9657 6.14494 16.7071 6.81895C16.8251 6.92629 16.9873 6.97082 17.1436 6.93884L18.8712 6.58531C19.0821 6.54216 19.2969 6.63878 19.4045 6.82516L20.1837 8.17484C20.2913 8.36122 20.2676 8.59555 20.1248 8.75658L18.9561 10.0746C18.8504 10.1938 18.8078 10.3563 18.8415 10.512C18.9465 10.997 18.9999 11.4949 18.9999 12C18.9999 12.5051 18.9465 13.003 18.8415 13.488C18.8078 13.6437 18.8504 13.8062 18.9561 13.9254L20.1248 15.2434C20.2676 15.4044 20.2913 15.6388 20.1837 15.8252L19.4045 17.1748C19.2969 17.3612 19.0821 17.4578 18.8712 17.4147L17.1436 17.0612C16.9873 17.0292 16.8251 17.0737 16.7071 17.181C15.9657 17.8551 15.0884 18.364 14.1325 18.6693C13.9805 18.7179 13.8608 18.8361 13.8103 18.9875L13.2535 20.6581C13.1854 20.8623 12.9943 21 12.7791 21H11.2206C11.0054 21 10.8144 20.8623 10.7463 20.6581L10.1894 18.9875C10.139 18.8361 10.0193 18.7179 9.86725 18.6693C8.91136 18.364 8.0341 17.8551 7.2927 17.181C7.17464 17.0737 7.01244 17.0292 6.85612 17.0612L5.12852 17.4147C4.91768 17.4578 4.70288 17.3612 4.59527 17.1748L3.81603 15.8252C3.70842 15.6388 3.73215 15.4044 3.87494 15.2434L5.04366 13.9254C5.14939 13.8062 5.19195 13.6437 5.15824 13.488C5.0533 13.003 4.99988 12.5051 4.99988 12C4.99988 11.4949 5.0533 10.997 5.15824 10.512C5.19195 10.3563 5.14939 10.1938 5.04366 10.0746L3.87494 8.75658C3.73215 8.59555 3.70842 8.36122 3.81603 8.17484L4.59527 6.82516C4.70288 6.63878 4.91768 6.54216 5.12852 6.58531L6.85612 6.93884C7.01244 6.97082 7.17464 6.92629 7.2927 6.81895C8.0341 6.14494 8.91136 5.63604 9.86725 5.33066C10.0193 5.28209 10.139 5.16388 10.1894 5.01249L10.7463 3.34189C10.8144 3.13771 11.0054 3 11.2206 3H12.7791C12.9943 3 13.1854 3.13771 13.2535 3.34189L13.8103 5.01249ZM11.9999 16C9.79074 16 7.99988 14.2091 7.99988 12C7.99988 9.79086 9.79074 8 11.9999 8C14.209 8 15.9999 9.79086 15.9999 12C15.9999 14.2091 14.209 16 11.9999 16ZM14.9999 12C14.9999 13.6569 13.6567 15 11.9999 15C10.343 15 8.99988 13.6569 8.99988 12C8.99988 10.3431 10.343 9 11.9999 9C13.6567 9 14.9999 10.3431 14.9999 12Z" fill="white"/>
</svg>
