<svg width="24" height="24" viewBox="0 0 24 24" fill="none" xmlns="http://www.w3.org/2000/svg">
<path fill-rule="evenodd" clip-rule="evenodd" d="M20 11.5C20 11.2239 20.2239 11 20.5 11C20.7761 11 21 11.2239 21 11.5V18.5C21 19.8807 19.8807 21 18.5 21H5.48612C4.10541 21 2.98612 19.8807 2.98612 18.5V5.5C2.98612 4.11929 4.10541 3 5.48612 3H12.5C12.7761 3 13 3.22386 13 3.5C13 3.77614 12.7761 4 12.5 4H5.48612C4.6577 4 3.98612 4.67157 3.98612 5.5V18.5C3.98612 19.3284 4.6577 20 5.48612 20H18.5C19.3284 20 20 19.3284 20 18.5V11.5ZM18.8536 3.14645L20.8536 5.14645C21.0488 5.34171 21.0488 5.65829 20.8536 5.85355L12.8536 13.8536C12.7598 13.9473 12.6326 14 12.5 14H10.5C10.2239 14 10 13.7761 10 13.5V11.5C10 11.3674 10.0527 11.2402 10.1464 11.1464L18.1464 3.14645C18.3417 2.95118 18.6583 2.95118 18.8536 3.14645ZM11 11.7071L18.5 4.20711L19.7929 5.5L12.2929 13H11V11.7071Z" fill="black"/>
</svg>
