<svg width="28" height="28" viewBox="0 0 28 28" fill="none" xmlns="http://www.w3.org/2000/svg">
<rect width="28" height="28" rx="10" fill="#FCF6E6"/>
<path d="M9.90366 21.8034C9.81269 21.9277 9.66576 22.0083 9.5 22.0083C9.33424 22.0083 9.18731 21.9277 9.09634 21.8034L6.14645 18.8536C5.95118 18.6583 5.95118 18.3417 6.14645 18.1464C6.34171 17.9512 6.65829 17.9512 6.85355 18.1464L9 20.2929V6.5C9 6.22386 9.22386 6 9.5 6C9.77614 6 10 6.22386 10 6.5V20.2929L12.1464 18.1464C12.3417 17.9512 12.6583 17.9512 12.8536 18.1464C13.0488 18.3417 13.0488 18.6583 12.8536 18.8536L9.90366 21.8034Z" fill="#E4A503"/>
<path d="M19.0963 6.20485C19.1873 6.08063 19.3342 5.99997 19.5 5.99997C19.6658 5.99997 19.8127 6.08063 19.9037 6.20485L22.8536 9.15475C23.0488 9.35001 23.0488 9.66659 22.8536 9.86185C22.6583 10.0571 22.3417 10.0571 22.1464 9.86185L20 7.71541V21.5083C20 21.7844 19.7761 22.0083 19.5 22.0083C19.2239 22.0083 19 21.7844 19 21.5083V7.71541L16.8536 9.86185C16.6583 10.0571 16.3417 10.0571 16.1464 9.86185C15.9512 9.66659 15.9512 9.35001 16.1464 9.15475L19.0963 6.20485Z" fill="#E4A503"/>
</svg>
