<svg width="28" height="28" viewBox="0 0 28 28" fill="none" xmlns="http://www.w3.org/2000/svg">
<rect width="28" height="28" rx="10" fill="#FCF6E6"/>
<path fill-rule="evenodd" clip-rule="evenodd" d="M17 14.7071V20.5C17 20.7045 16.8755 20.8883 16.6857 20.9642L11.6857 22.9642C11.3573 23.0956 11 22.8537 11 22.5V14.7071L5.14645 8.85355C5.05268 8.75979 5 8.63261 5 8.5V5.5C5 5.22386 5.22386 5 5.5 5H22.5C22.7761 5 23 5.22386 23 5.5V8.5C23 8.63261 22.9473 8.75979 22.8536 8.85355L17 14.7071ZM16 15H12V21.7615L16 20.1615V15ZM6 8.29289V6H22V8.29289L16.2929 14H11.7071L6 8.29289Z" fill="#E4A503"/>
</svg>
