<svg width="20" height="20" viewBox="0 0 20 20" fill="none" xmlns="http://www.w3.org/2000/svg">
<path fill-rule="evenodd" clip-rule="evenodd" d="M10.0001 20C4.47721 20 6.10352e-05 15.5228 6.10352e-05 10C6.10352e-05 4.47715 4.47721 0 10.0001 0C15.5229 0 20.0001 4.47715 20.0001 10C20.0001 15.5228 15.5229 20 10.0001 20ZM10.0001 19C14.9706 19 19.0001 14.9706 19.0001 10C19.0001 5.02944 14.9706 1 10.0001 1C5.0295 1 1.00006 5.02944 1.00006 10C1.00006 14.9706 5.0295 19 10.0001 19ZM13.8536 7.14645C13.6584 6.95118 13.3418 6.95118 13.1465 7.14645L8.50006 11.7929L6.85361 10.1464C6.65835 9.95118 6.34177 9.95118 6.14651 10.1464C5.95125 10.3417 5.95125 10.6583 6.14651 10.8536L8.14651 12.8536C8.34177 13.0488 8.65835 13.0488 8.85361 12.8536L13.8536 7.85355C14.0489 7.65829 14.0489 7.34171 13.8536 7.14645Z" fill="#82CA27"/>
</svg>
