<svg width="24" height="24" viewBox="0 0 24 24" fill="none" xmlns="http://www.w3.org/2000/svg">
<path fill-rule="evenodd" clip-rule="evenodd" d="M5.5 3C4.11929 3 3 4.11929 3 5.5V8.5C3 9.88071 4.11929 11 5.5 11H8.5C9.88071 11 11 9.88071 11 8.5V5.5C11 4.11929 9.88071 3 8.5 3H5.5ZM4 8.5V5.5C4 4.67157 4.67157 4 5.5 4H8.5C9.32843 4 10 4.67157 10 5.5V8.5C10 9.32843 9.32843 10 8.5 10H5.5C4.67157 10 4 9.32843 4 8.5ZM13 5.5C13 4.11929 14.1193 3 15.5 3H18.5C19.8807 3 21 4.11929 21 5.5V8.5C21 9.88071 19.8807 11 18.5 11H15.5C14.1193 11 13 9.88071 13 8.5V5.5ZM14 8.5V5.5C14 4.67157 14.6716 4 15.5 4H18.5C19.3284 4 20 4.67157 20 5.5V8.5C20 9.32843 19.3284 10 18.5 10H15.5C14.6716 10 14 9.32843 14 8.5ZM3 15.5C3 14.1193 4.11929 13 5.5 13H8.5C9.88071 13 11 14.1193 11 15.5V18.5C11 19.8807 9.88071 21 8.5 21H5.5C4.11929 21 3 19.8807 3 18.5V15.5ZM4 18.5V15.5C4 14.6716 4.67157 14 5.5 14H8.5C9.32843 14 10 14.6716 10 15.5V18.5C10 19.3284 9.32843 20 8.5 20H5.5C4.67157 20 4 19.3284 4 18.5ZM13 15.5C13 14.1193 14.1193 13 15.5 13H18.5C19.8807 13 21 14.1193 21 15.5V18.5C21 19.8807 19.8807 21 18.5 21H15.5C14.1193 21 13 19.8807 13 18.5V15.5ZM14 18.5V15.5C14 14.6716 14.6716 14 15.5 14H18.5C19.3284 14 20 14.6716 20 15.5V18.5C20 19.3284 19.3284 20 18.5 20H15.5C14.6716 20 14 19.3284 14 18.5Z" fill="white"/>
</svg>
