<svg width="20" height="16" viewBox="0 0 20 16" fill="none" xmlns="http://www.w3.org/2000/svg">
<path fill-rule="evenodd" clip-rule="evenodd" d="M18.0005 5.59629V15.5C18.0005 15.7761 17.7766 16 17.5005 16H2.50049C2.22435 16 2.00049 15.7761 2.00049 15.5V5.59629L0.0362547 0.685695C-0.0951181 0.357263 0.146761 0 0.500493 0H10.5005C10.7049 0 10.8888 0.124475 10.9647 0.314305L12.5005 4.15371L14.0363 0.314305C14.1122 0.124475 14.296 0 14.5005 0H19.5005C19.8542 0 20.0961 0.357263 19.9647 0.685695L18.0005 5.59629ZM13.0005 6V15H17.0005V6H13.0005ZM3.00049 6H12.0005V15H3.00049V6ZM2.83901 5H11.762L10.162 1H1.23901L2.83901 5ZM18.762 1L17.162 5H13.239L14.839 1H18.762ZM11.0005 11.5V13.5C11.0005 13.7761 10.7766 14 10.5005 14H7.50049C7.22435 14 7.00049 13.7761 7.00049 13.5V11.5C7.00049 11.2239 7.22435 11 7.50049 11H10.5005C10.7766 11 11.0005 11.2239 11.0005 11.5ZM8.00049 12H10.0005V13H8.00049V12Z" fill="white"/>
</svg>
