<svg width="16" height="20" viewBox="0 0 16 20" fill="none" xmlns="http://www.w3.org/2000/svg">
<path fill-rule="evenodd" clip-rule="evenodd" d="M16 17.501V4.52898C16.0084 4.39623 15.9642 4.25806 15.8536 4.14745L11.8536 0.147449C11.7429 0.0368419 11.6048 -0.00741709 11.472 0.00100238H2.5C1.11929 0.00100238 0 1.12029 0 2.501V17.501C0 18.8817 1.11929 20.001 2.5 20.001H13.5C14.8807 20.001 16 18.8817 16 17.501ZM2.5 1.001H11V4.501C11 4.77714 11.2239 5.001 11.5 5.001H15V17.501C15 18.3294 14.3284 19.001 13.5 19.001H2.5C1.67157 19.001 1 18.3294 1 17.501V2.501C1 1.67258 1.67157 1.001 2.5 1.001ZM12 1.70811V4.001H14.2929L12 1.70811ZM4 7.5C4 7.77614 4.22386 8 4.5 8H11.5C11.7761 8 12 7.77614 12 7.5C12 7.22386 11.7761 7 11.5 7H4.5C4.22386 7 4 7.22386 4 7.5ZM4.5 11C4.22386 11 4 10.7761 4 10.5C4 10.2239 4.22386 10 4.5 10H11.5C11.7761 10 12 10.2239 12 10.5C12 10.7761 11.7761 11 11.5 11H4.5ZM4 13.5C4 13.7761 4.22386 14 4.5 14H9.5C9.77614 14 10 13.7761 10 13.5C10 13.2239 9.77614 13 9.5 13H4.5C4.22386 13 4 13.2239 4 13.5Z" fill="white"/>
</svg>
