<svg width="24" height="24" viewBox="0 0 24 24" fill="none" xmlns="http://www.w3.org/2000/svg">
<path fill-rule="evenodd" clip-rule="evenodd" d="M12.5001 23C6.70107 23 2.00006 18.299 2.00006 12.5C2.00006 6.70101 6.70107 2 12.5001 2C18.2991 2 23.0001 6.70101 23.0001 12.5C23.0001 18.299 18.2991 23 12.5001 23ZM12.5001 11.7929L15.1465 9.14645C15.3418 8.95118 15.6584 8.95118 15.8536 9.14645C16.0489 9.34171 16.0489 9.65829 15.8536 9.85355L13.2072 12.5L15.8536 15.1464C16.0489 15.3417 16.0489 15.6583 15.8536 15.8536C15.6584 16.0488 15.3418 16.0488 15.1465 15.8536L12.5001 13.2071L9.85361 15.8536C9.65835 16.0488 9.34177 16.0488 9.14651 15.8536C8.95125 15.6583 8.95125 15.3417 9.14651 15.1464L11.793 12.5L9.14651 9.85355C8.95125 9.65829 8.95125 9.34171 9.14651 9.14645C9.34177 8.95118 9.65835 8.95118 9.85361 9.14645L12.5001 11.7929ZM22.0001 12.5C22.0001 17.7467 17.7468 22 12.5001 22C7.25336 22 3.00006 17.7467 3.00006 12.5C3.00006 7.25329 7.25336 3 12.5001 3C17.7468 3 22.0001 7.25329 22.0001 12.5Z" fill="#E32B2B"/>
</svg>
