<svg width="30" height="30" viewBox="0 0 30 30" fill="none" xmlns="http://www.w3.org/2000/svg">
<circle cx="15" cy="15" r="15" fill="#E4A503" fill-opacity="0.5"/>
<path fill-rule="evenodd" clip-rule="evenodd" d="M22.8698 22.2413L19.4439 18.8154C20.5507 17.5617 21.2222 15.9149 21.2222 14.1111C21.2222 10.1838 18.0385 7 14.1111 7C10.1838 7 7 10.1838 7 14.1111C7 18.0385 10.1838 21.2222 14.1111 21.2222C15.9149 21.2222 17.5617 20.5507 18.8154 19.4439L22.2413 22.8698C22.4149 23.0434 22.6963 23.0434 22.8698 22.8698C23.0434 22.6963 23.0434 22.4149 22.8698 22.2413ZM20.3333 14.1111C20.3333 17.5475 17.5475 20.3333 14.1111 20.3333C10.6747 20.3333 7.88889 17.5475 7.88889 14.1111C7.88889 10.6747 10.6747 7.88889 14.1111 7.88889C17.5475 7.88889 20.3333 10.6747 20.3333 14.1111Z" fill="black"/>
</svg>
